<svg version="1.1" id="Layer_1" xmlns="http://www.w3.org/2000/svg" xmlns:xlink="http://www.w3.org/1999/xlink" x="0px" y="0px"
	 width="100%" viewBox="0 0 500 500" enable-background="new 0 0 500 500" xml:space="preserve">
<path fill="#000000" opacity="1.000000" stroke="none" 
	d="
M277.000000,501.000000 
	C184.666687,501.000000 92.833374,501.000000 1.000049,501.000000 
	C1.000033,334.333405 1.000033,167.666794 1.000016,1.000139 
	C167.666565,1.000093 334.333130,1.000093 500.999756,1.000046 
	C500.999847,167.666519 500.999847,334.333038 500.999939,500.999786 
	C426.500000,501.000000 352.000000,501.000000 277.000000,501.000000 
M405.743256,231.292389 
	C405.564880,231.456573 405.470795,231.659805 404.962280,232.469788 
	C403.830994,234.009445 402.699738,235.549103 401.343323,237.395142 
	C398.613770,233.362595 396.249084,229.849319 393.863861,226.350052 
	C390.719971,221.737778 386.504364,224.904114 381.739197,223.741714 
	C385.994629,230.323853 389.185242,235.886520 393.027557,240.955200 
	C395.164948,243.774734 394.981537,245.681961 393.135529,248.355698 
	C389.020935,254.315094 385.164368,260.452667 381.013672,266.806976 
	C391.032532,267.288086 391.032257,267.287903 396.039551,260.073395 
	C397.786957,257.555756 399.535980,255.039276 401.729065,251.881866 
	C404.372681,255.726456 407.011810,258.607849 408.538635,261.991211 
	C411.405579,268.344269 416.171661,268.917236 422.932709,267.332886 
	C419.782166,262.626526 417.064423,258.055145 413.846436,253.868225 
	C407.527008,245.646042 407.398224,245.198944 412.851257,236.605881 
	C413.725189,235.228653 414.343872,233.689453 415.717255,231.967392 
	C417.553162,229.166122 419.389038,226.364838 421.249634,223.525879 
	C414.099884,221.545990 409.260376,223.235321 406.998901,229.997330 
	C406.998901,229.997330 406.990906,229.937469 406.473633,230.091965 
	C406.338898,230.401596 406.204163,230.711227 406.004761,231.049606 
	C406.004761,231.049606 406.035950,231.113174 405.743256,231.292389 
M86.526154,304.492279 
	C86.526154,304.492279 86.545197,304.419922 86.965584,304.207733 
	C87.227699,304.005859 87.387421,303.742035 87.001526,303.001221 
	C87.149513,303.139740 87.297493,303.278229 87.907089,303.216492 
	C88.090057,302.943298 88.273033,302.670074 88.221039,302.266846 
	C88.221039,302.266846 88.424873,302.441681 88.897369,302.199646 
	C89.144806,301.765198 89.392250,301.330780 89.890335,300.716248 
	C89.890335,300.716248 89.865540,300.408600 90.398399,300.170197 
	C91.340347,299.168335 92.282295,298.166504 93.135674,297.138641 
	C93.135674,297.138641 93.120491,297.229706 93.629509,297.134277 
	C93.907692,296.711609 94.185875,296.288940 94.769653,295.830292 
	C94.769653,295.830292 94.882156,295.543884 95.320351,295.439514 
	C95.635818,294.970154 95.951286,294.500824 96.786385,293.828308 
	C96.899696,293.680817 97.013008,293.533356 97.687782,293.143402 
	C97.826050,292.763977 97.964317,292.384552 98.029175,292.023224 
	C98.029175,292.023224 98.049370,292.096069 98.674324,291.834839 
	C101.038689,288.546143 103.403061,285.257416 105.892776,281.287109 
	C105.914917,280.825714 105.937057,280.364319 106.479172,279.580963 
	C107.497612,278.362946 108.516052,277.144928 110.223656,276.057617 
	C111.074791,276.399841 111.925919,276.742096 113.208260,277.654022 
	C119.333496,279.738098 125.317856,282.775848 131.613571,283.705811 
	C144.364029,285.589264 155.969101,281.431274 166.532837,274.358032 
	C168.246658,273.210510 169.575073,271.487366 171.021194,270.006348 
	C171.021194,270.006348 171.027969,270.071045 171.671692,269.942657 
	C173.141525,268.300385 174.611359,266.658112 176.675171,264.544159 
	C177.863144,262.993988 179.317963,261.580933 180.195999,259.871552 
	C186.144852,248.290207 189.395172,236.496307 186.254364,223.107544 
	C184.237457,214.509766 181.216263,206.619217 175.646149,200.115540 
	C164.540131,187.148148 150.243759,181.174683 132.418076,182.926819 
	C122.592529,182.891632 114.118958,186.283249 106.990326,193.006897 
	C106.990326,193.006897 106.984566,192.954330 106.350807,193.047836 
	C105.451767,193.922592 104.552727,194.797348 103.773170,195.759613 
	C103.773170,195.759613 103.706429,195.627380 103.197647,195.845688 
	C103.010422,196.156815 102.823196,196.467957 102.732147,196.782684 
	C102.732147,196.782684 102.715477,196.687881 102.100296,196.960938 
	C98.815414,201.423218 94.928375,205.569199 92.381004,210.418869 
	C88.122879,218.525436 86.825562,227.368683 87.334351,236.639206 
	C87.833290,245.730392 90.729218,253.802322 95.388809,261.530884 
	C95.388809,261.530884 95.489754,261.576202 95.821259,262.135986 
	C97.566757,263.895477 99.312248,265.654999 100.958694,268.155121 
	C99.316574,269.771637 97.674454,271.388123 95.829163,272.674866 
	C95.555557,272.782928 95.281952,272.890991 94.998856,272.997345 
	C94.998856,272.997345 94.994873,273.005585 94.335358,273.061768 
	C93.228645,274.380280 92.121933,275.698792 91.000000,277.000000 
	C91.000000,277.000000 91.017166,277.016052 90.384712,277.186981 
	C90.038422,277.742401 89.692139,278.297821 89.138145,278.790497 
	C89.138145,278.790497 89.045219,278.986572 88.347916,279.049255 
	C82.281754,285.034271 76.125679,290.932098 70.194633,297.048157 
	C67.890717,299.423920 66.640854,302.305481 69.993393,305.020752 
	C69.993393,305.020752 69.927429,305.030914 69.953484,305.760559 
	C73.351295,311.383362 76.579857,312.337738 81.018425,309.012238 
	C81.018425,309.012238 81.037460,309.080444 81.656204,308.964081 
	C82.134514,308.323578 82.612823,307.683105 83.028671,307.015778 
	C83.028671,307.015778 83.036034,307.083374 83.646301,307.000854 
	C84.229744,306.479858 84.813194,305.958893 85.048141,305.256989 
	C85.048141,305.256989 85.409439,305.409943 85.865753,305.256104 
	C86.155014,305.083160 86.351471,304.836395 86.526154,304.492279 
M340.926056,258.822937 
	C340.926056,258.822937 340.865540,258.613373 341.387787,258.195374 
	C341.934692,256.467438 342.481628,254.739517 343.615051,252.636246 
	C344.065613,251.084824 344.516205,249.533401 345.004425,247.993134 
	C345.004425,247.993134 344.974274,247.965881 345.496765,247.554276 
	C345.655060,246.924545 345.813324,246.294815 346.306213,245.064758 
	C348.854980,238.705154 351.488495,232.376892 353.864014,225.953232 
	C354.233704,224.953491 353.763153,222.684647 353.107880,222.419525 
	C348.790741,220.672791 344.692688,223.132874 343.178375,227.651291 
	C340.200134,236.537933 337.017487,245.356049 333.919403,254.202515 
	C333.431641,254.294586 332.943909,254.386673 332.456146,254.478745 
	C328.520325,244.330063 324.584473,234.181366 320.610382,223.320129 
	C317.146912,222.987717 313.683472,222.655304 309.591888,222.262604 
	C311.171539,225.429047 312.075867,227.241760 313.169556,229.785858 
	C314.546753,233.265167 315.891785,236.757614 317.308441,240.220764 
	C319.598419,245.818787 321.935486,251.397537 324.463684,257.618500 
	C325.153290,259.209839 325.842926,260.801178 326.674194,262.298615 
	C326.674194,262.298615 326.506836,262.328094 326.802887,263.096069 
	C327.078003,268.574463 330.883179,267.991608 334.753052,268.130798 
	C338.671173,268.271637 338.901123,265.825043 339.234344,263.181488 
	C339.234344,263.181488 339.255066,263.280182 339.860321,262.944214 
	C340.149200,261.600128 340.438080,260.256073 340.926056,258.822937 
M218.541611,223.415253 
	C218.541611,223.415253 218.395752,223.381805 217.982086,222.788376 
	C216.337708,222.654495 214.693314,222.520615 212.355972,222.214539 
	C211.886871,222.271454 211.417770,222.328369 210.254333,222.204269 
	C209.793198,223.988129 209.332062,225.771973 208.720291,227.767181 
	C208.720291,227.767181 208.918625,227.934601 208.726028,228.854782 
	C208.722260,232.642883 208.718491,236.430984 208.743500,240.233871 
	C208.743500,240.233871 208.740234,240.266083 208.179214,241.020676 
	C208.131088,248.679993 207.931473,256.344147 208.174377,263.994202 
	C208.218140,265.372070 210.459869,267.982513 211.042084,267.812775 
	C213.408447,267.122772 217.534821,269.784668 218.001221,265.547516 
	C218.442123,261.542206 217.547836,257.389954 217.290878,253.184280 
	C217.290878,253.184280 217.183090,253.114853 217.257645,252.215408 
	C217.177277,250.145584 217.096893,248.075760 217.218277,245.258743 
	C217.643921,244.026520 218.069550,242.794296 218.670578,241.054352 
	C222.894073,247.519745 226.706268,253.355469 231.226334,260.274841 
	C235.725433,252.892120 239.569199,246.584763 244.190063,239.002228 
	C244.190063,249.552734 244.190063,258.570923 244.190063,267.659088 
	C247.623123,267.659088 250.649704,267.659088 253.023453,267.659088 
	C253.023453,254.325531 253.089584,241.267059 252.936523,228.211166 
	C252.918182,226.647675 251.708588,225.098129 250.321167,223.039047 
	C243.036118,222.962967 237.838486,227.677246 236.555969,235.496033 
	C235.750824,236.678238 234.945663,237.860443 233.952423,239.176727 
	C233.952423,239.176727 234.067978,239.376709 233.562790,239.777512 
	C232.748032,240.887527 231.933289,241.997528 231.218094,242.971909 
	C227.419022,237.438095 223.806473,232.175995 220.071411,226.289017 
	C219.565887,225.380783 219.060349,224.472534 218.541611,223.415253 
M371.948212,228.190491 
	C371.948212,226.417053 371.948212,224.643616 371.948212,222.802719 
	C368.657837,222.802719 364.536346,221.696320 363.355560,223.086929 
	C361.927307,224.768982 362.982880,228.564651 362.973541,231.445633 
	C362.965485,233.939651 362.971161,236.433716 362.971130,238.927750 
	C362.971039,248.519440 362.971100,258.111145 362.971100,267.656128 
	C366.273132,267.656128 369.001617,267.656128 372.360565,267.656128 
	C372.129120,263.866608 371.920074,260.443146 371.651672,256.081573 
	C371.650757,247.044113 371.649841,238.006653 371.948212,228.190491 
M273.119019,265.574890 
	C280.718842,268.643829 288.216553,269.849792 296.160309,266.202911 
	C309.033783,260.292877 312.929871,245.102142 306.375580,233.364609 
	C300.697235,223.195694 286.883087,218.691269 274.445007,224.832703 
	C258.886017,232.515106 258.650452,257.608948 273.119019,265.574890 
z"/>
<path fill="#E2BA81" opacity="1.000000" stroke="none" 
	d="
M133.004440,183.033798 
	C150.243759,181.174683 164.540131,187.148148 175.646149,200.115540 
	C181.216263,206.619217 184.237457,214.509766 186.254364,223.107544 
	C189.395172,236.496307 186.144852,248.290207 180.195999,259.871552 
	C179.317963,261.580933 177.863144,262.993988 176.099945,264.885620 
	C174.025818,266.841766 172.526901,268.456421 171.027985,270.071045 
	C171.027969,270.071045 171.021194,270.006348 170.716614,270.102722 
	C160.097107,277.275177 149.368698,283.464630 136.226593,281.908783 
	C129.933792,281.163757 123.768379,279.346893 117.542908,278.026611 
	C115.958923,277.690674 114.365906,277.397308 112.777046,277.084351 
	C111.925919,276.742096 111.074791,276.399841 109.559769,276.034851 
	C107.916992,277.309021 106.938103,278.605957 105.959198,279.902924 
	C105.937057,280.364319 105.914917,280.825714 105.568024,281.827087 
	C102.845299,285.610077 100.447334,288.853088 98.049370,292.096069 
	C98.049370,292.096069 98.029175,292.023224 97.849823,292.204346 
	C97.489082,292.718933 97.307701,293.052399 97.126328,293.385895 
	C97.013008,293.533356 96.899696,293.680817 96.325333,294.002350 
	C95.536903,294.632233 95.209526,295.088043 94.882156,295.543884 
	C94.882156,295.543884 94.769653,295.830292 94.389359,295.949615 
	C93.712860,296.455841 93.416672,296.842773 93.120483,297.229706 
	C93.120491,297.229706 93.135674,297.138641 92.864937,297.174316 
	C91.684647,298.276215 90.775093,299.342407 89.865540,300.408600 
	C89.865540,300.408600 89.890335,300.716248 89.520035,300.909943 
	C88.908104,301.549652 88.666489,301.995667 88.424873,302.441681 
	C88.424873,302.441681 88.221039,302.266846 88.096840,302.418152 
	C87.796913,302.851898 87.621185,303.134308 87.445465,303.416718 
	C87.297493,303.278229 87.149513,303.139740 86.994751,303.294495 
	C86.702614,303.791840 86.555023,304.069214 86.545197,304.419922 
	C86.545197,304.419922 86.526154,304.492279 86.249878,304.562317 
	C85.662529,304.802246 85.474472,305.061432 85.409439,305.409943 
	C85.409439,305.409943 85.048141,305.256989 84.894379,305.328613 
	C84.172424,305.961273 83.604233,306.522308 83.036041,307.083374 
	C83.036034,307.083374 83.028671,307.015778 82.749588,307.096130 
	C81.992821,307.811157 81.515137,308.445801 81.037460,309.080444 
	C81.037460,309.080444 81.018425,309.012238 80.618164,309.017609 
	C75.743172,310.384888 73.231911,306.685547 69.927429,305.030914 
	C69.927429,305.030914 69.993393,305.020752 69.988892,304.642456 
	C71.276779,301.378937 72.036583,298.058868 73.966988,295.694611 
	C78.705833,289.890747 83.984009,284.527252 89.045227,278.986572 
	C89.045219,278.986572 89.138145,278.790497 89.548790,278.699158 
	C90.312012,278.077209 90.664589,277.546631 91.017166,277.016052 
	C91.017166,277.016052 91.000000,277.000000 91.341934,276.951660 
	C92.787529,275.604065 93.891205,274.304840 94.994873,273.005585 
	C94.994873,273.005585 94.998856,272.997345 95.259483,273.013885 
	C95.690849,273.021851 95.861595,273.013245 96.032333,273.004639 
	C97.674454,271.388123 99.316574,269.771637 100.972458,267.468445 
	C99.154068,265.046600 97.321907,263.311401 95.489754,261.576202 
	C95.489754,261.576202 95.388809,261.530884 95.509644,261.093994 
	C95.149521,259.118195 94.818108,257.512421 94.164932,256.050415 
	C85.660469,237.014801 86.124870,218.913300 99.545502,202.050644 
	C100.826256,200.441422 101.669258,198.483780 102.715485,196.687881 
	C102.715477,196.687881 102.732147,196.782684 102.930733,196.659058 
	C103.321693,196.232742 103.514061,195.930054 103.706429,195.627380 
	C103.706429,195.627380 103.773170,195.759613 104.064346,195.732391 
	C105.231873,194.788239 106.108215,193.871277 106.984566,192.954330 
	C106.984566,192.954330 106.990326,193.006897 107.338066,192.985718 
	C116.125351,189.654297 124.564896,186.344040 133.004440,183.033798 
M109.243034,204.139633 
	C108.851089,204.594162 108.459145,205.048691 107.964073,206.044815 
	C107.344666,206.698227 106.725258,207.351654 105.403923,208.124191 
	C103.745468,211.220062 102.087013,214.315948 100.405724,217.326584 
	C100.405724,217.326584 100.493637,217.334351 99.885597,217.541809 
	C99.265198,219.317825 98.644798,221.093826 98.129135,222.979523 
	C98.129135,222.979523 98.024857,223.089645 97.466042,223.598557 
	C94.979149,231.751328 94.700356,239.671707 100.187851,247.364944 
	C100.348122,247.627991 100.393784,247.909622 100.207191,248.986053 
	C100.767624,249.993164 101.328056,251.000259 102.213943,252.609833 
	C102.600075,252.924072 103.071564,253.174652 103.360123,253.561646 
	C118.306221,273.606598 133.093811,277.733917 155.516129,268.097198 
	C168.688721,262.435822 176.297882,247.588867 176.586746,234.957703 
	C176.705276,229.774918 175.458221,224.560898 174.888062,218.594086 
	C174.087051,217.161850 173.286041,215.729599 172.600174,214.297455 
	C172.600174,214.297455 172.570908,214.408829 172.669937,213.707642 
	C172.010849,212.855865 171.351776,212.004089 170.812225,211.160126 
	C170.812225,211.160126 170.790009,211.277817 170.732101,210.600784 
	C170.078705,210.082443 169.425308,209.564087 168.362198,208.935745 
	C168.098343,208.772034 167.963043,208.534973 167.945892,207.498154 
	C167.245438,206.688400 166.544998,205.878647 165.313629,204.810562 
	C164.503937,203.970352 163.694260,203.130157 162.823532,201.549713 
	C161.066330,200.609726 159.309128,199.669724 157.346313,198.772202 
	C157.346313,198.772202 157.249496,198.585907 157.314865,197.868576 
	C156.760300,197.087387 156.327423,195.765121 155.632309,195.608765 
	C148.729095,194.056015 141.831573,192.228806 134.825974,191.493454 
	C131.679871,191.163223 128.293121,193.125504 125.023811,193.992172 
	C125.023811,193.992172 125.063347,194.031769 124.473511,194.152222 
	C124.021301,194.517456 123.569084,194.882675 123.134476,195.172516 
	C123.134476,195.172516 123.205566,195.203156 122.503357,195.136642 
	C121.693031,195.499649 120.882713,195.862671 119.832542,196.623917 
	C119.568596,196.794205 119.282532,196.909729 118.301506,197.025055 
	C117.591698,197.492294 116.881889,197.959549 116.178162,198.241470 
	C116.178162,198.241470 116.362076,198.265152 115.846931,198.387314 
	C115.561333,198.587753 115.275726,198.788193 115.000000,199.000000 
	C115.000000,199.000000 114.990959,198.988205 114.399467,199.133499 
	C113.957054,199.526047 113.514641,199.918594 113.010796,200.869843 
	C112.441086,201.274628 111.871368,201.679428 110.797897,202.364288 
	C110.503700,202.845718 110.209503,203.327148 109.925934,203.917282 
	C109.925934,203.917282 109.816788,203.921432 109.243034,204.139633 
z"/>
<path fill="#E2BA81" opacity="1.000000" stroke="none" 
	d="
M272.857422,265.304962 
	C258.650452,257.608948 258.886017,232.515106 274.445007,224.832703 
	C286.883087,218.691269 300.697235,223.195694 306.375580,233.364609 
	C312.929871,245.102142 309.033783,260.292877 296.160309,266.202911 
	C288.216553,269.849792 280.718842,268.643829 272.857422,265.304962 
M278.134918,257.870361 
	C278.134918,257.870361 278.130585,257.742340 278.399353,258.217377 
	C278.686096,258.433258 278.972870,258.649109 279.680145,258.971069 
	C279.680145,258.971069 279.995483,259.268768 280.348450,259.927368 
	C284.616974,260.978668 288.982056,262.927765 292.920074,258.914276 
	C292.920074,258.914276 292.648071,258.623322 293.404419,258.670898 
	C294.603882,257.111847 295.803345,255.552765 297.002197,254.001099 
	C297.002197,254.001099 296.996857,254.005615 297.379822,253.670654 
	C297.530151,253.370239 297.680511,253.069824 297.863373,252.858170 
	C297.863373,252.858170 297.770447,252.875610 298.464539,252.592422 
	C302.175995,249.472397 301.662750,245.832962 299.902588,242.058594 
	C299.902588,242.058594 299.858185,242.194565 299.929657,241.417847 
	C299.152069,240.027618 298.374451,238.637405 297.706299,237.234863 
	C297.706299,237.234863 297.687622,237.343384 297.727448,236.613220 
	C296.605225,233.278503 294.572693,231.082275 290.383911,231.059967 
	C290.383911,231.059967 290.026642,230.857849 289.385864,230.455704 
	C287.606628,230.298248 285.827393,230.140808 283.685699,229.653580 
	C283.117126,229.763672 282.548553,229.873764 281.262878,230.032074 
	C279.529541,231.371307 277.796204,232.710541 276.006592,234.007431 
	C276.006592,234.007431 276.051056,234.062134 275.344086,234.167435 
	C270.369049,237.619614 270.634705,242.911484 271.237640,247.835678 
	C271.539886,250.304138 273.819733,252.530457 275.697723,255.128769 
	C276.138336,255.716476 276.578949,256.304169 277.335785,257.324799 
	C277.644348,257.500122 277.952942,257.675415 278.134918,257.870361 
z"/>
<path fill="#E8BC7F" opacity="1.000000" stroke="none" 
	d="
M208.918625,227.934601 
	C208.918625,227.934601 208.720291,227.767181 208.845703,227.275085 
	C209.296997,225.829285 209.622879,224.875595 210.373566,223.940460 
	C212.210495,223.943115 213.622635,223.927200 215.462250,223.898499 
	C216.725098,223.717743 217.560425,223.549789 218.395752,223.381805 
	C218.395752,223.381805 218.541611,223.415253 218.534775,223.832672 
	C218.720505,225.134399 218.913071,226.018707 219.148926,227.250092 
	C221.891891,231.941299 224.494904,236.350281 227.341415,240.596008 
	C228.399658,242.174438 230.028122,243.370575 231.396561,244.741043 
	C232.287033,242.952927 233.177505,241.164825 234.067978,239.376709 
	C234.067978,239.376709 233.952423,239.176727 234.373154,239.028076 
	C235.542679,237.614578 236.291473,236.349747 237.040253,235.084900 
	C237.838486,227.677246 243.036118,222.962967 250.855804,223.635208 
	C251.587830,237.198822 251.854248,250.166351 251.838745,263.133545 
	C251.837616,264.071686 249.784393,265.007416 248.685272,265.944244 
	C247.787491,264.793701 246.161713,263.673035 246.113037,262.487610 
	C245.846619,256.000854 246.010788,249.497650 245.927719,243.001358 
	C245.903915,241.139511 245.549774,239.281891 245.347107,237.422318 
	C244.857727,237.263153 244.368362,237.103989 243.878983,236.944824 
	C239.743515,243.269592 235.608047,249.594345 231.116028,256.464386 
	C227.054596,250.807190 223.534683,245.904236 219.968323,240.739441 
	C219.600143,239.970291 219.278412,239.462982 218.956665,238.955658 
	C218.665161,239.237167 218.373642,239.518646 217.805267,239.856354 
	C217.344467,239.952988 217.160538,239.993423 216.871948,240.118988 
	C216.597794,240.451187 216.621140,240.685120 216.850983,241.347473 
	C216.812820,242.964767 216.761078,244.140503 216.531982,245.616486 
	C216.630798,248.316101 216.906937,250.715485 217.183090,253.114853 
	C217.183090,253.114853 217.290878,253.184280 217.184845,253.657837 
	C217.044189,254.410095 217.009583,254.688797 216.761810,255.296234 
	C216.690277,258.430450 216.831863,261.235870 216.829285,264.390137 
	C211.016159,267.459686 209.112488,266.407196 209.054199,260.481934 
	C209.020035,257.008392 209.043793,253.534286 209.363251,249.912933 
	C211.496170,247.594025 211.827545,245.592453 209.009216,243.490448 
	C208.913940,242.108292 208.827087,241.187195 208.740234,240.266083 
	C208.740234,240.266083 208.743500,240.233871 209.002869,239.887192 
	C209.147690,235.671875 209.033157,231.803238 208.918625,227.934601 
z"/>
<path fill="#DFB880" opacity="1.000000" stroke="none" 
	d="
M415.080566,232.225128 
	C414.343872,233.689453 413.725189,235.228653 412.851257,236.605881 
	C407.398224,245.198944 407.527008,245.646042 413.846436,253.868225 
	C417.064423,258.055145 419.782166,262.626526 422.932709,267.332886 
	C416.171661,268.917236 411.405579,268.344269 408.538635,261.991211 
	C407.011810,258.607849 404.372681,255.726456 401.729065,251.881866 
	C399.535980,255.039276 397.786957,257.555756 396.039551,260.073395 
	C391.032257,267.287903 391.032532,267.288086 381.013672,266.806976 
	C385.164368,260.452667 389.020935,254.315094 393.135529,248.355698 
	C394.981537,245.681961 395.164948,243.774734 393.027557,240.955200 
	C389.185242,235.886520 385.994629,230.323853 381.739197,223.741714 
	C386.504364,224.904114 390.719971,221.737778 393.863861,226.350052 
	C396.249084,229.849319 398.613770,233.362595 401.343323,237.395142 
	C402.699738,235.549103 403.830994,234.009445 405.311768,232.057816 
	C405.792938,231.473053 405.917847,231.295502 406.035950,231.113174 
	C406.035950,231.113174 406.004761,231.049606 406.223206,230.884598 
	C406.667755,230.489120 406.850830,230.228424 406.990906,229.937469 
	C406.990906,229.937469 406.998901,229.997330 407.312744,229.924438 
	C408.874695,228.626083 409.970734,227.164246 411.411072,226.237488 
	C413.054901,225.179810 415.005371,224.598694 416.822571,223.810455 
	C417.107361,224.222656 417.392151,224.634872 417.676910,225.047073 
	C416.811462,227.439758 415.946014,229.832443 415.080566,232.225128 
z"/>
<path fill="#DFB880" opacity="1.000000" stroke="none" 
	d="
M320.648651,224.032669 
	C324.584473,234.181366 328.520325,244.330063 332.456146,254.478745 
	C332.943909,254.386673 333.431641,254.294586 333.919403,254.202515 
	C337.017487,245.356049 340.200134,236.537933 343.178375,227.651291 
	C344.692688,223.132874 348.790741,220.672791 353.107880,222.419525 
	C353.763153,222.684647 354.233704,224.953491 353.864014,225.953232 
	C351.488495,232.376892 348.854980,238.705154 346.118286,245.136627 
	C345.669556,245.002930 345.408813,244.797379 345.148041,244.591827 
	C345.090118,245.716507 345.032196,246.841202 344.974274,247.965881 
	C344.974274,247.965881 345.004425,247.993134 344.698151,248.171875 
	C343.599121,249.911591 342.806366,251.472580 341.982788,253.389923 
	C341.589844,255.368668 341.227692,256.991028 340.865540,258.613373 
	C340.865540,258.613373 340.926056,258.822937 340.625793,258.903748 
	C340.325500,258.984558 339.930237,259.085052 339.732605,259.280792 
	C339.374146,260.005127 339.213318,260.533691 339.067841,261.433441 
	C339.140472,262.296448 339.197784,262.788330 339.255066,263.280182 
	C339.255066,263.280182 339.234344,263.181488 338.943939,263.312988 
	C333.735870,267.470978 331.831421,267.295959 326.506836,262.328094 
	C326.506836,262.328094 326.674194,262.298615 326.701111,261.978516 
	C325.902893,260.100433 325.077789,258.542450 324.252655,256.984436 
	C321.935486,251.397537 319.598419,245.818787 317.308441,240.220764 
	C315.891785,236.757614 314.546753,233.265167 313.252502,229.150269 
	C312.646759,221.919342 317.556122,224.458221 320.648651,224.032669 
z"/>
<path fill="#DFB880" opacity="1.000000" stroke="none" 
	d="
M371.648926,228.969193 
	C371.649841,238.006653 371.650757,247.044113 371.475281,256.822021 
	C371.063721,259.139038 371.041748,260.788391 370.534882,262.272156 
	C370.002625,263.830231 369.005859,265.229645 368.212097,266.698425 
	C366.814117,265.381256 364.238861,264.095520 364.202728,262.742035 
	C363.887482,250.931824 363.950104,239.108139 364.157318,227.292984 
	C364.176544,226.196777 365.975281,224.257507 366.938385,224.263275 
	C368.280609,224.271332 369.722076,225.620941 370.901917,226.648163 
	C371.426727,227.105057 371.416382,228.176605 371.648926,228.969193 
z"/>
<path fill="#CDB38D" opacity="1.000000" stroke="none" 
	d="
M220.014755,241.001282 
	C223.534683,245.904236 227.054596,250.807190 231.116028,256.464386 
	C235.608047,249.594345 239.743515,243.269592 243.878983,236.944824 
	C244.368362,237.103989 244.857727,237.263153 245.347107,237.422318 
	C245.549774,239.281891 245.903915,241.139511 245.927719,243.001358 
	C246.010788,249.497650 245.846619,256.000854 246.113037,262.487610 
	C246.161713,263.673035 247.787491,264.793701 248.685272,265.944244 
	C249.784393,265.007416 251.837616,264.071686 251.838745,263.133545 
	C251.854248,250.166351 251.587830,237.198822 251.220795,223.886749 
	C251.708588,225.098129 252.918182,226.647675 252.936523,228.211166 
	C253.089584,241.267059 253.023453,254.325531 253.023453,267.659088 
	C250.649704,267.659088 247.623123,267.659088 244.190063,267.659088 
	C244.190063,258.570923 244.190063,249.552734 244.190063,239.002228 
	C239.569199,246.584763 235.725433,252.892120 231.226334,260.274841 
	C226.706268,253.355469 222.894073,247.519745 218.670578,241.054352 
	C218.069550,242.794296 217.643921,244.026520 217.038513,245.460968 
	C216.858749,245.663208 216.709320,245.316223 216.709320,245.316223 
	C216.761078,244.140503 216.812820,242.964767 216.893372,241.131256 
	C216.922150,240.473480 216.976593,240.033859 216.976593,240.033859 
	C217.160538,239.993423 217.344467,239.952988 218.040039,240.016418 
	C219.039368,240.413940 219.527069,240.707611 220.014755,241.001282 
z"/>
<path fill="#CDB38D" opacity="1.000000" stroke="none" 
	d="
M102.407890,196.824402 
	C101.669258,198.483780 100.826256,200.441422 99.545502,202.050644 
	C86.124870,218.913300 85.660469,237.014801 94.164932,256.050415 
	C94.818108,257.512421 95.149521,259.118195 95.509155,261.038696 
	C90.729218,253.802322 87.833290,245.730392 87.334351,236.639206 
	C86.825562,227.368683 88.122879,218.525436 92.381004,210.418869 
	C94.928375,205.569199 98.815414,201.423218 102.407890,196.824402 
z"/>
<path fill="#D6BC94" opacity="1.000000" stroke="none" 
	d="
M112.992653,277.369202 
	C114.365906,277.397308 115.958923,277.690674 117.542908,278.026611 
	C123.768379,279.346893 129.933792,281.163757 136.226593,281.908783 
	C149.368698,283.464630 160.097107,277.275177 170.746841,270.114685 
	C169.575073,271.487366 168.246658,273.210510 166.532837,274.358032 
	C155.969101,281.431274 144.364029,285.589264 131.613571,283.705811 
	C125.317856,282.775848 119.333496,279.738098 112.992653,277.369202 
z"/>
<path fill="#D6BC94" opacity="1.000000" stroke="none" 
	d="
M371.798584,228.579834 
	C371.416382,228.176605 371.426727,227.105057 370.901917,226.648163 
	C369.722076,225.620941 368.280609,224.271332 366.938385,224.263275 
	C365.975281,224.257507 364.176544,226.196777 364.157318,227.292984 
	C363.950104,239.108139 363.887482,250.931824 364.202728,262.742035 
	C364.238861,264.095520 366.814117,265.381256 368.212097,266.698425 
	C369.005859,265.229645 370.002625,263.830231 370.534882,262.272156 
	C371.041748,260.788391 371.063721,259.139038 371.504944,257.291077 
	C371.920074,260.443146 372.129120,263.866608 372.360565,267.656128 
	C369.001617,267.656128 366.273132,267.656128 362.971100,267.656128 
	C362.971100,258.111145 362.971039,248.519440 362.971130,238.927750 
	C362.971161,236.433716 362.965485,233.939651 362.973541,231.445633 
	C362.982880,228.564651 361.927307,224.768982 363.355560,223.086929 
	C364.536346,221.696320 368.657837,222.802719 371.948212,222.802719 
	C371.948212,224.643616 371.948212,226.417053 371.798584,228.579834 
z"/>
<path fill="#CDB38D" opacity="1.000000" stroke="none" 
	d="
M88.696571,279.017914 
	C83.984009,284.527252 78.705833,289.890747 73.966988,295.694611 
	C72.036583,298.058868 71.276779,301.378937 69.970787,304.670471 
	C66.640854,302.305481 67.890717,299.423920 70.194633,297.048157 
	C76.125679,290.932098 82.281754,285.034271 88.696571,279.017914 
z"/>
<path fill="#CDB38D" opacity="1.000000" stroke="none" 
	d="
M216.974960,254.967484 
	C217.009583,254.688797 217.044189,254.410095 217.159805,253.716843 
	C217.547836,257.389954 218.442123,261.542206 218.001221,265.547516 
	C217.534821,269.784668 213.408447,267.122772 211.042084,267.812775 
	C210.459869,267.982513 208.218140,265.372070 208.174377,263.994202 
	C207.931473,256.344147 208.131088,248.679993 208.459717,240.643372 
	C208.827087,241.187195 208.913940,242.108292 209.002502,243.927307 
	C209.016647,246.570297 209.029068,248.315369 209.041489,250.060440 
	C209.043793,253.534286 209.020035,257.008392 209.054199,260.481934 
	C209.112488,266.407196 211.016159,267.459686 216.834808,263.935120 
	C216.981308,260.410034 216.978134,257.688751 216.974960,254.967484 
z"/>
<path fill="#D6BC94" opacity="1.000000" stroke="none" 
	d="
M233.815384,239.577118 
	C233.177505,241.164825 232.287033,242.952927 231.396561,244.741043 
	C230.028122,243.370575 228.399658,242.174438 227.341415,240.596008 
	C224.494904,236.350281 221.891891,231.941299 219.420334,227.259033 
	C219.830261,226.918579 220.012085,226.916229 220.193924,226.913879 
	C223.806473,232.175995 227.419022,237.438095 231.218094,242.971909 
	C231.933289,241.997528 232.748032,240.887527 233.815384,239.577118 
z"/>
<path fill="#CDB38D" opacity="1.000000" stroke="none" 
	d="
M132.711258,182.980316 
	C124.564896,186.344040 116.125351,189.654297 107.316727,192.970093 
	C114.118958,186.283249 122.592529,182.891632 132.711258,182.980316 
z"/>
<path fill="#D6BC94" opacity="1.000000" stroke="none" 
	d="
M415.398926,232.096252 
	C415.946014,229.832443 416.811462,227.439758 417.676910,225.047073 
	C417.392151,224.634872 417.107361,224.222656 416.822571,223.810455 
	C415.005371,224.598694 413.054901,225.179810 411.411072,226.237488 
	C409.970734,227.164246 408.874695,228.626083 407.284058,229.915039 
	C409.260376,223.235321 414.099884,221.545990 421.249634,223.525879 
	C419.389038,226.364838 417.553162,229.166122 415.398926,232.096252 
z"/>
<path fill="#CDB38D" opacity="1.000000" stroke="none" 
	d="
M326.654846,262.712097 
	C331.831421,267.295959 333.735870,267.470978 338.994324,263.311279 
	C338.901123,265.825043 338.671173,268.271637 334.753052,268.130798 
	C330.883179,267.991608 327.078003,268.574463 326.654846,262.712097 
z"/>
<path fill="#CDB38D" opacity="1.000000" stroke="none" 
	d="
M320.629517,223.676392 
	C317.556122,224.458221 312.646759,221.919342 313.157806,228.784576 
	C312.075867,227.241760 311.171539,225.429047 309.591888,222.262604 
	C313.683472,222.655304 317.146912,222.987717 320.629517,223.676392 
z"/>
<path fill="#CDB38D" opacity="1.000000" stroke="none" 
	d="
M69.940460,305.395752 
	C73.231911,306.685547 75.743172,310.384888 80.648331,309.036133 
	C76.579857,312.337738 73.351295,311.383362 69.940460,305.395752 
z"/>
<path fill="#CDB38D" opacity="1.000000" stroke="none" 
	d="
M98.361847,291.965454 
	C100.447334,288.853088 102.845299,285.610077 105.505341,282.167908 
	C103.403061,285.257416 101.038689,288.546143 98.361847,291.965454 
z"/>
<path fill="#CDB38D" opacity="1.000000" stroke="none" 
	d="
M95.655502,261.856079 
	C97.321907,263.311401 99.154068,265.046600 101.021980,267.098145 
	C99.312248,265.654999 97.566757,263.895477 95.655502,261.856079 
z"/>
<path fill="#D6BC94" opacity="1.000000" stroke="none" 
	d="
M171.349838,270.006836 
	C172.526901,268.456421 174.025818,266.841766 175.802963,265.121460 
	C174.611359,266.658112 173.141525,268.300385 171.349838,270.006836 
z"/>
<path fill="#D6BC94" opacity="1.000000" stroke="none" 
	d="
M208.822327,228.394684 
	C209.033157,231.803238 209.147690,235.671875 208.988464,239.879791 
	C208.718491,236.430984 208.722260,232.642883 208.822327,228.394684 
z"/>
<path fill="#D6BC94" opacity="1.000000" stroke="none" 
	d="
M342.013611,253.033569 
	C342.806366,251.472580 343.599121,249.911591 344.679321,248.166290 
	C344.516205,249.533401 344.065613,251.084824 343.068024,252.826965 
	C342.351868,253.022995 342.182739,253.028290 342.013611,253.033569 
z"/>
<path fill="#CDB38D" opacity="1.000000" stroke="none" 
	d="
M94.665115,273.033691 
	C93.891205,274.304840 92.787529,275.604065 91.349541,276.960297 
	C92.121933,275.698792 93.228645,274.380280 94.665115,273.033691 
z"/>
<path fill="#CDB38D" opacity="1.000000" stroke="none" 
	d="
M324.358154,257.301453 
	C325.077789,258.542450 325.902893,260.100433 326.630310,262.025482 
	C325.842926,260.801178 325.153290,259.209839 324.358154,257.301453 
z"/>
<path fill="#CDB38D" opacity="1.000000" stroke="none" 
	d="
M106.219193,279.741943 
	C106.938103,278.605957 107.916992,277.309021 109.215195,275.969482 
	C108.516052,277.144928 107.497612,278.362946 106.219193,279.741943 
z"/>
<path fill="#D6BC94" opacity="1.000000" stroke="none" 
	d="
M236.798111,235.290466 
	C236.291473,236.349747 235.542679,237.614578 234.467194,238.961029 
	C234.945663,237.860443 235.750824,236.678238 236.798111,235.290466 
z"/>
<path fill="#D6BC94" opacity="1.000000" stroke="none" 
	d="
M216.531982,245.616486 
	C216.709320,245.316223 216.858749,245.663208 216.937637,245.834564 
	C217.096893,248.075760 217.177277,250.145584 217.220367,252.665131 
	C216.906937,250.715485 216.630798,248.316101 216.531982,245.616486 
z"/>
<path fill="#CDB38D" opacity="1.000000" stroke="none" 
	d="
M209.948761,223.921890 
	C209.622879,224.875595 209.296997,225.829285 208.921021,227.169403 
	C209.332062,225.771973 209.793198,223.988129 210.483780,222.492157 
	C210.458405,223.160660 210.203583,223.541275 209.948761,223.921890 
z"/>
<path fill="#CDB38D" opacity="1.000000" stroke="none" 
	d="
M218.188919,223.085098 
	C217.560425,223.549789 216.725098,223.717743 215.289780,223.717468 
	C214.142853,223.161743 213.595901,222.774231 213.048935,222.386749 
	C214.693314,222.520615 216.337708,222.654495 218.188919,223.085098 
z"/>
<path fill="#CDB38D" opacity="1.000000" stroke="none" 
	d="
M341.982788,253.389938 
	C342.182739,253.028290 342.351868,253.022995 342.774780,253.014648 
	C342.481628,254.739517 341.934692,256.467438 341.126678,258.404358 
	C341.227692,256.991028 341.589844,255.368668 341.982788,253.389938 
z"/>
<path fill="#D6BC94" opacity="1.000000" stroke="none" 
	d="
M212.702454,222.300629 
	C213.595901,222.774231 214.142853,223.161743 214.862274,223.730286 
	C213.622635,223.927200 212.210495,223.943115 210.373566,223.940460 
	C210.203583,223.541275 210.458405,223.160660 210.830948,222.582672 
	C211.417770,222.328369 211.886871,222.271454 212.702454,222.300629 
z"/>
<path fill="#CDB38D" opacity="1.000000" stroke="none" 
	d="
M90.131973,300.289398 
	C90.775093,299.342407 91.684647,298.276215 92.909225,297.187347 
	C92.282295,298.166504 91.340347,299.168335 90.131973,300.289398 
z"/>
<path fill="#CDB38D" opacity="1.000000" stroke="none" 
	d="
M106.667686,193.001083 
	C106.108215,193.871277 105.231873,194.788239 104.004608,195.688644 
	C104.552727,194.797348 105.451767,193.922592 106.667686,193.001083 
z"/>
<path fill="#CDB38D" opacity="1.000000" stroke="none" 
	d="
M339.930237,259.085052 
	C339.930237,259.085052 340.325500,258.984558 340.526245,258.948273 
	C340.438080,260.256073 340.149200,261.600128 339.557678,263.112183 
	C339.197784,262.788330 339.140472,262.296448 339.245850,261.220673 
	C339.582397,260.119507 339.756317,259.602295 339.930237,259.085052 
z"/>
<path fill="#D6BC94" opacity="1.000000" stroke="none" 
	d="
M345.235535,247.760071 
	C345.032196,246.841202 345.090118,245.716507 345.148041,244.591827 
	C345.408813,244.797379 345.669556,245.002930 345.950989,245.436783 
	C345.813324,246.294815 345.655060,246.924545 345.235535,247.760071 
z"/>
<path fill="#CDB38D" opacity="1.000000" stroke="none" 
	d="
M83.341171,307.042114 
	C83.604233,306.522308 84.172424,305.961273 85.068634,305.419067 
	C84.813194,305.958893 84.229744,306.479858 83.341171,307.042114 
z"/>
<path fill="#CDB38D" opacity="1.000000" stroke="none" 
	d="
M81.346832,309.022278 
	C81.515137,308.445801 81.992821,307.811157 82.780823,307.109558 
	C82.612823,307.683105 82.134514,308.323578 81.346832,309.022278 
z"/>
<path fill="#CDB38D" opacity="1.000000" stroke="none" 
	d="
M220.132660,226.601440 
	C220.012085,226.916229 219.830261,226.918579 219.377045,226.911972 
	C218.913071,226.018707 218.720505,225.134399 218.541382,223.907196 
	C219.060349,224.472534 219.565887,225.380783 220.132660,226.601440 
z"/>
<path fill="#CDB38D" opacity="1.000000" stroke="none" 
	d="
M95.101257,295.491699 
	C95.209526,295.088043 95.536903,294.632233 96.065514,294.103943 
	C95.951286,294.500824 95.635818,294.970154 95.101257,295.491699 
z"/>
<path fill="#CDB38D" opacity="1.000000" stroke="none" 
	d="
M90.700943,277.101501 
	C90.664589,277.546631 90.312012,278.077209 89.652649,278.730530 
	C89.692139,278.297821 90.038422,277.742401 90.700943,277.101501 
z"/>
<path fill="#CDB38D" opacity="1.000000" stroke="none" 
	d="
M93.375000,297.182007 
	C93.416672,296.842773 93.712860,296.455841 94.236557,295.967590 
	C94.185875,296.288940 93.907692,296.711609 93.375000,297.182007 
z"/>
<path fill="#CDB38D" opacity="1.000000" stroke="none" 
	d="
M88.661118,302.320679 
	C88.666489,301.995667 88.908104,301.549652 89.394714,301.000000 
	C89.392250,301.330780 89.144806,301.765198 88.661118,302.320679 
z"/>
<path fill="#CDB38D" opacity="1.000000" stroke="none" 
	d="
M87.676277,303.316589 
	C87.621185,303.134308 87.796913,302.851898 88.214325,302.483185 
	C88.273033,302.670074 88.090057,302.943298 87.676277,303.316589 
z"/>
<path fill="#CDB38D" opacity="1.000000" stroke="none" 
	d="
M86.755386,304.313843 
	C86.555023,304.069214 86.702614,303.791840 87.216354,303.501984 
	C87.387421,303.742035 87.227699,304.005859 86.755386,304.313843 
z"/>
<path fill="#CDB38D" opacity="1.000000" stroke="none" 
	d="
M85.637596,305.333008 
	C85.474472,305.061432 85.662529,304.802246 86.214363,304.574036 
	C86.351471,304.836395 86.155014,305.083160 85.637596,305.333008 
z"/>
<path fill="#CDB38D" opacity="1.000000" stroke="none" 
	d="
M103.452042,195.736542 
	C103.514061,195.930054 103.321693,196.232742 102.882645,196.657257 
	C102.823196,196.467957 103.010422,196.156815 103.452042,195.736542 
z"/>
<path fill="#CDB38D" opacity="1.000000" stroke="none" 
	d="
M95.930748,272.839752 
	C95.861595,273.013245 95.690849,273.021851 95.264229,273.014771 
	C95.281952,272.890991 95.555557,272.782928 95.930748,272.839752 
z"/>
<path fill="#CDB38D" opacity="1.000000" stroke="none" 
	d="
M97.407059,293.264648 
	C97.307701,293.052399 97.489082,292.718933 97.886520,292.195282 
	C97.964317,292.384552 97.826050,292.763977 97.407059,293.264648 
z"/>
<path fill="#D6BC94" opacity="1.000000" stroke="none" 
	d="
M406.732269,230.014709 
	C406.850830,230.228424 406.667755,230.489120 406.255554,230.870239 
	C406.204163,230.711227 406.338898,230.401596 406.732269,230.014709 
z"/>
<path fill="#D6BC94" opacity="1.000000" stroke="none" 
	d="
M405.889587,231.202789 
	C405.917847,231.295502 405.792938,231.473053 405.561127,231.773956 
	C405.470795,231.659805 405.564880,231.456573 405.889587,231.202789 
z"/>
<path fill="#030202" opacity="1.000000" stroke="none" 
	d="
M162.884567,202.289948 
	C163.694260,203.130157 164.503937,203.970352 165.640793,205.264404 
	C166.630737,206.553665 167.293518,207.389099 167.956299,208.224533 
	C167.963043,208.534973 168.098343,208.772034 168.685791,209.279129 
	C169.602921,210.174286 170.196472,210.726059 170.790009,211.277817 
	C170.790009,211.277817 170.812225,211.160126 170.823547,211.472717 
	C171.413544,212.659821 171.992233,213.534317 172.570908,214.408829 
	C172.570908,214.408829 172.600174,214.297455 172.670395,214.651978 
	C173.437866,216.458038 174.135117,217.909561 174.832367,219.361084 
	C175.458221,224.560898 176.705276,229.774918 176.586746,234.957703 
	C176.297882,247.588867 168.688721,262.435822 155.516129,268.097198 
	C133.093811,277.733917 118.306221,273.606598 103.360123,253.561646 
	C103.071564,253.174652 102.600075,252.924072 102.086365,251.949707 
	C101.414131,250.262985 100.869492,249.236404 100.324844,248.209824 
	C100.393784,247.909622 100.348122,247.627991 100.096909,246.782532 
	C99.345604,238.496628 98.685234,230.793137 98.024857,223.089645 
	C98.024857,223.089645 98.129135,222.979523 98.283524,222.667755 
	C99.123146,220.682098 99.808388,219.008224 100.493637,217.334351 
	C100.493637,217.334351 100.405724,217.326584 100.720749,217.210892 
	C102.725800,214.065155 104.415833,211.035110 106.105850,208.005066 
	C106.725258,207.351654 107.344666,206.698227 108.311951,205.666107 
	C109.045486,204.832062 109.431137,204.376755 109.816788,203.921432 
	C109.816788,203.921432 109.925934,203.917282 110.200684,203.764984 
	C110.750839,203.103195 111.026245,202.593704 111.301651,202.084229 
	C111.871368,201.679428 112.441086,201.274628 113.314957,200.472137 
	C114.076393,199.712372 114.533676,199.350296 114.990959,198.988205 
	C114.990959,198.988205 115.000000,199.000000 115.273590,198.979935 
	C115.818810,198.728302 116.090446,198.496735 116.362076,198.265152 
	C116.362076,198.265152 116.178162,198.241470 116.495300,198.221039 
	C117.533073,197.790573 118.253716,197.380524 118.974365,196.970490 
	C119.282532,196.909729 119.568596,196.794205 120.290009,196.381958 
	C121.566841,195.827713 122.386200,195.515427 123.205566,195.203156 
	C123.205566,195.203156 123.134476,195.172516 123.417511,195.163147 
	C124.154808,194.779770 124.609077,194.405762 125.063339,194.031769 
	C125.063347,194.031769 125.023811,193.992172 125.371277,194.033905 
	C127.351433,194.000732 129.076324,194.242920 130.601807,193.799316 
	C140.309402,190.976364 148.820038,194.487152 157.249496,198.585907 
	C157.249496,198.585907 157.346313,198.772202 157.665024,198.985199 
	C159.617340,200.228790 161.250961,201.259369 162.884567,202.289948 
M141.166916,220.815277 
	C141.166916,220.815277 141.413864,220.735184 141.202774,220.206985 
	C140.904663,219.984055 140.606552,219.761124 140.250061,219.704147 
	C140.250061,219.704147 140.366272,219.572067 139.917526,219.138489 
	C138.992737,218.682404 138.067963,218.226318 137.112579,217.883728 
	C137.112579,217.883728 137.228149,217.905334 137.047958,217.358994 
	C136.696381,217.243561 136.344818,217.128143 136.000000,216.999573 
	C136.000000,216.999573 135.989105,217.011276 135.624359,216.559143 
	C134.960709,216.165558 134.297043,215.771988 133.562042,215.281509 
	C133.562042,215.281509 133.444168,215.305878 133.135605,214.933197 
	C132.894363,214.699921 132.607178,214.563278 132.276398,214.626572 
	C132.276398,214.626572 132.375427,214.597168 131.819260,213.989670 
	C129.621429,213.427078 127.423599,212.864487 124.664848,212.158310 
	C124.664848,225.342850 124.612549,237.392426 124.720924,249.440552 
	C124.737282,251.258545 125.502815,253.069824 125.921799,254.884201 
	C127.955574,254.236069 129.989349,253.587936 132.670685,252.720901 
	C141.930679,246.557602 151.862595,241.327286 161.453537,232.816544 
	C154.506729,228.758194 148.636841,225.328995 142.386292,221.266037 
	C141.957687,221.032135 141.529099,220.798233 141.166916,220.815277 
z"/>
<path fill="#D6BC94" opacity="1.000000" stroke="none" 
	d="
M157.282181,198.227234 
	C148.820038,194.487152 140.309402,190.976364 130.601807,193.799316 
	C129.076324,194.242920 127.351433,194.000732 125.367157,194.061584 
	C128.293121,193.125504 131.679871,191.163223 134.825974,191.493454 
	C141.831573,192.228806 148.729095,194.056015 155.632309,195.608765 
	C156.327423,195.765121 156.760300,197.087387 157.282181,198.227234 
z"/>
<path fill="#D6BC94" opacity="1.000000" stroke="none" 
	d="
M97.745453,223.344101 
	C98.685234,230.793137 99.345604,238.496628 99.968094,246.606232 
	C94.700356,239.671707 94.979149,231.751328 97.745453,223.344101 
z"/>
<path fill="#D6BC94" opacity="1.000000" stroke="none" 
	d="
M105.754890,208.064636 
	C104.415833,211.035110 102.725800,214.065155 100.732162,217.253510 
	C102.087013,214.315948 103.745468,211.220062 105.754890,208.064636 
z"/>
<path fill="#D6BC94" opacity="1.000000" stroke="none" 
	d="
M162.854050,201.919830 
	C161.250961,201.259369 159.617340,200.228790 157.767822,198.963959 
	C159.309128,199.669724 161.066330,200.609726 162.854050,201.919830 
z"/>
<path fill="#D6BC94" opacity="1.000000" stroke="none" 
	d="
M100.189621,217.438080 
	C99.808388,219.008224 99.123146,220.682098 98.231148,222.612915 
	C98.644798,221.093826 99.265198,219.317825 100.189621,217.438080 
z"/>
<path fill="#D6BC94" opacity="1.000000" stroke="none" 
	d="
M174.860214,218.977585 
	C174.135117,217.909561 173.437866,216.458038 172.612823,214.651932 
	C173.286041,215.729599 174.087051,217.161850 174.860214,218.977585 
z"/>
<path fill="#D6BC94" opacity="1.000000" stroke="none" 
	d="
M100.266022,248.597931 
	C100.869492,249.236404 101.414131,250.262985 101.923630,251.648468 
	C101.328056,251.000259 100.767624,249.993164 100.266022,248.597931 
z"/>
<path fill="#D6BC94" opacity="1.000000" stroke="none" 
	d="
M172.620422,214.058228 
	C171.992233,213.534317 171.413544,212.659821 170.763794,211.468811 
	C171.351776,212.004089 172.010849,212.855865 172.620422,214.058228 
z"/>
<path fill="#D6BC94" opacity="1.000000" stroke="none" 
	d="
M167.951096,207.861343 
	C167.293518,207.389099 166.630737,206.553665 165.906250,205.393555 
	C166.544998,205.878647 167.245438,206.688400 167.951096,207.861343 
z"/>
<path fill="#D6BC94" opacity="1.000000" stroke="none" 
	d="
M170.761047,210.939301 
	C170.196472,210.726059 169.602921,210.174286 168.890656,209.334122 
	C169.425308,209.564087 170.078705,210.082443 170.761047,210.939301 
z"/>
<path fill="#D6BC94" opacity="1.000000" stroke="none" 
	d="
M122.854462,195.169891 
	C122.386200,195.515427 121.566841,195.827713 120.409935,196.182831 
	C120.882713,195.862671 121.693031,195.499649 122.854462,195.169891 
z"/>
<path fill="#D6BC94" opacity="1.000000" stroke="none" 
	d="
M118.637939,196.997772 
	C118.253716,197.380524 117.533073,197.790573 116.492264,198.313721 
	C116.881889,197.959549 117.591698,197.492294 118.637939,196.997772 
z"/>
<path fill="#D6BC94" opacity="1.000000" stroke="none" 
	d="
M124.768425,194.091980 
	C124.609077,194.405762 124.154808,194.779770 123.408707,195.200836 
	C123.569084,194.882675 124.021301,194.517456 124.768425,194.091980 
z"/>
<path fill="#D6BC94" opacity="1.000000" stroke="none" 
	d="
M114.695213,199.060852 
	C114.533676,199.350296 114.076393,199.712372 113.345673,200.192795 
	C113.514641,199.918594 113.957054,199.526047 114.695213,199.060852 
z"/>
<path fill="#D6BC94" opacity="1.000000" stroke="none" 
	d="
M111.049774,202.224243 
	C111.026245,202.593704 110.750839,203.103195 110.195374,203.710632 
	C110.209503,203.327148 110.503700,202.845718 111.049774,202.224243 
z"/>
<path fill="#D6BC94" opacity="1.000000" stroke="none" 
	d="
M109.529907,204.030533 
	C109.431137,204.376755 109.045486,204.832062 108.363510,205.395294 
	C108.459145,205.048691 108.851089,204.594162 109.529907,204.030533 
z"/>
<path fill="#D6BC94" opacity="1.000000" stroke="none" 
	d="
M116.104507,198.326233 
	C116.090446,198.496735 115.818810,198.728302 115.268646,198.974243 
	C115.275726,198.788193 115.561333,198.587753 116.104507,198.326233 
z"/>
<path fill="#030202" opacity="1.000000" stroke="none" 
	d="
M279.995483,259.268768 
	C279.995483,259.268768 279.680145,258.971069 279.380463,258.646332 
	C278.764038,258.128510 278.447296,257.935425 278.130585,257.742340 
	C278.130585,257.742340 278.134918,257.870361 278.069397,257.615479 
	C277.675781,257.204376 277.347656,257.048126 277.019562,256.891876 
	C276.578949,256.304169 276.138336,255.716476 275.306458,254.655182 
	C270.389526,247.198242 271.705963,240.544693 276.051056,234.062134 
	C276.051056,234.062134 276.006592,234.007431 276.378998,233.906891 
	C280.632904,230.376144 285.375702,230.823730 290.026642,230.857849 
	C290.026642,230.857849 290.383911,231.059967 290.775360,231.360413 
	C293.340424,233.555038 295.514008,235.449219 297.687622,237.343384 
	C297.687622,237.343384 297.706299,237.234863 297.772095,237.573547 
	C298.511353,239.339691 299.184753,240.767120 299.858185,242.194565 
	C299.858185,242.194565 299.902588,242.058594 299.843323,242.461395 
	C299.112823,246.201324 298.441620,249.538467 297.770447,252.875610 
	C297.770447,252.875610 297.863373,252.858170 297.609924,252.939667 
	C297.236633,253.349335 297.116760,253.677475 296.996857,254.005615 
	C296.996857,254.005615 297.002197,254.001099 296.747589,254.191925 
	C295.211334,255.796280 293.929688,257.209778 292.648071,258.623322 
	C292.648071,258.623322 292.920074,258.914276 292.419312,258.915283 
	C287.944214,259.033813 283.969849,259.151306 279.995483,259.268768 
z"/>
<path fill="#CDB38D" opacity="1.000000" stroke="none" 
	d="
M275.697571,234.114777 
	C271.705963,240.544693 270.389526,247.198242 275.060181,254.523956 
	C273.819733,252.530457 271.539886,250.304138 271.237640,247.835678 
	C270.634705,242.911484 270.369049,237.619614 275.697571,234.114777 
z"/>
<path fill="#CDB38D" opacity="1.000000" stroke="none" 
	d="
M280.171967,259.598083 
	C283.969849,259.151306 287.944214,259.033813 292.295532,258.759308 
	C288.982056,262.927765 284.616974,260.978668 280.171967,259.598083 
z"/>
<path fill="#CDB38D" opacity="1.000000" stroke="none" 
	d="
M289.706238,230.656769 
	C285.375702,230.823730 280.632904,230.376144 276.407166,233.928055 
	C277.796204,232.710541 279.529541,231.371307 281.966034,230.011475 
	C283.128845,229.988358 283.588501,229.985855 284.048157,229.983368 
	C285.827393,230.140808 287.606628,230.298248 289.706238,230.656769 
z"/>
<path fill="#D6BC94" opacity="1.000000" stroke="none" 
	d="
M298.117493,252.734009 
	C298.441620,249.538467 299.112823,246.201324 299.773987,242.443695 
	C301.662750,245.832962 302.175995,249.472397 298.117493,252.734009 
z"/>
<path fill="#D6BC94" opacity="1.000000" stroke="none" 
	d="
M297.707520,236.978302 
	C295.514008,235.449219 293.340424,233.555038 290.980530,231.365158 
	C294.572693,231.082275 296.605225,233.278503 297.707520,236.978302 
z"/>
<path fill="#CDB38D" opacity="1.000000" stroke="none" 
	d="
M293.026245,258.647095 
	C293.929688,257.209778 295.211334,255.796280 296.747894,254.188217 
	C295.803345,255.552765 294.603882,257.111847 293.026245,258.647095 
z"/>
<path fill="#D6BC94" opacity="1.000000" stroke="none" 
	d="
M299.893921,241.806213 
	C299.184753,240.767120 298.511353,239.339691 297.717407,237.579712 
	C298.374451,238.637405 299.152069,240.027618 299.893921,241.806213 
z"/>
<path fill="#D6BC94" opacity="1.000000" stroke="none" 
	d="
M283.866943,229.818466 
	C283.588501,229.985855 283.128845,229.988358 282.324585,229.987366 
	C282.548553,229.873764 283.117126,229.763672 283.866943,229.818466 
z"/>
<path fill="#CDB38D" opacity="1.000000" stroke="none" 
	d="
M297.188354,253.838135 
	C297.116760,253.677475 297.236633,253.349335 297.593689,252.895294 
	C297.680511,253.069824 297.530151,253.370239 297.188354,253.838135 
z"/>
<path fill="#CDB38D" opacity="1.000000" stroke="none" 
	d="
M278.264954,257.979858 
	C278.447296,257.935425 278.764038,258.128510 279.170197,258.593292 
	C278.972870,258.649109 278.686096,258.433258 278.264954,257.979858 
z"/>
<path fill="#CDB38D" opacity="1.000000" stroke="none" 
	d="
M277.177673,257.108337 
	C277.347656,257.048126 277.675781,257.204376 278.132690,257.605682 
	C277.952942,257.675415 277.644348,257.500122 277.177673,257.108337 
z"/>
<path fill="#D6BC94" opacity="1.000000" stroke="none" 
	d="
M209.363251,249.912933 
	C209.029068,248.315369 209.016647,246.570297 209.010925,244.388351 
	C211.827545,245.592453 211.496170,247.594025 209.363251,249.912933 
z"/>
<path fill="#D6BC94" opacity="1.000000" stroke="none" 
	d="
M216.761810,255.296234 
	C216.978134,257.688751 216.981308,260.410034 216.978973,263.586304 
	C216.831863,261.235870 216.690277,258.430450 216.761810,255.296234 
z"/>
<path fill="#D6BC94" opacity="1.000000" stroke="none" 
	d="
M219.968323,240.739441 
	C219.527069,240.707611 219.039368,240.413940 218.316895,239.960205 
	C218.373642,239.518646 218.665161,239.237167 218.956665,238.955658 
	C219.278412,239.462982 219.600143,239.970291 219.968323,240.739441 
z"/>
<path fill="#D6BC94" opacity="1.000000" stroke="none" 
	d="
M216.871948,240.118988 
	C216.976593,240.033859 216.922150,240.473480 216.879761,240.689682 
	C216.621140,240.685120 216.597794,240.451187 216.871948,240.118988 
z"/>
<path fill="#D6BC94" opacity="1.000000" stroke="none" 
	d="
M339.732605,259.280792 
	C339.756317,259.602295 339.582397,260.119507 339.230469,260.849518 
	C339.213318,260.533691 339.374146,260.005127 339.732605,259.280792 
z"/>
<path fill="#E4BA7F" opacity="1.000000" stroke="none" 
	d="
M142.766937,221.899780 
	C148.636841,225.328995 154.506729,228.758194 161.453537,232.816544 
	C151.862595,241.327286 141.930679,246.557602 132.063766,252.659088 
	C127.033348,253.632996 125.754684,251.790710 125.910172,247.435333 
	C126.210182,239.031555 126.300735,230.594208 125.881790,222.200562 
	C125.628242,217.120560 126.804070,214.237137 132.375427,214.597168 
	C132.375427,214.597168 132.276398,214.626572 132.398956,214.798065 
	C132.829056,215.081650 133.136612,215.193756 133.444168,215.305878 
	C133.444168,215.305878 133.562042,215.281509 133.652344,215.649506 
	C134.491470,216.348755 135.240295,216.680023 135.989105,217.011276 
	C135.989105,217.011276 136.000000,216.999573 136.164154,217.202515 
	C136.628265,217.572067 136.928207,217.738708 137.228149,217.905334 
	C137.228149,217.905334 137.112579,217.883728 137.199982,218.184418 
	C138.313675,218.847427 139.339981,219.209747 140.366272,219.572067 
	C140.366272,219.572067 140.250061,219.704147 140.385574,219.885406 
	C140.818680,220.289520 141.116272,220.512344 141.413864,220.735184 
	C141.413864,220.735184 141.166916,220.815277 141.360291,220.974503 
	C141.958084,221.389084 142.362503,221.644424 142.766937,221.899780 
z"/>
<path fill="#D6BC94" opacity="1.000000" stroke="none" 
	d="
M132.097351,214.293427 
	C126.804070,214.237137 125.628242,217.120560 125.881790,222.200562 
	C126.300735,230.594208 126.210182,239.031555 125.910172,247.435333 
	C125.754684,251.790710 127.033348,253.632996 131.739990,252.768555 
	C129.989349,253.587936 127.955574,254.236069 125.921799,254.884201 
	C125.502815,253.069824 124.737282,251.258545 124.720924,249.440552 
	C124.612549,237.392426 124.664848,225.342850 124.664848,212.158310 
	C127.423599,212.864487 129.621429,213.427078 132.097351,214.293427 
z"/>
<path fill="#D6BC94" opacity="1.000000" stroke="none" 
	d="
M140.141907,219.355286 
	C139.339981,219.209747 138.313675,218.847427 137.215286,218.127670 
	C138.067963,218.226318 138.992737,218.682404 140.141907,219.355286 
z"/>
<path fill="#D6BC94" opacity="1.000000" stroke="none" 
	d="
M135.806732,216.785217 
	C135.240295,216.680023 134.491470,216.348755 133.688019,215.697968 
	C134.297043,215.771988 134.960709,216.165558 135.806732,216.785217 
z"/>
<path fill="#D6BC94" opacity="1.000000" stroke="none" 
	d="
M133.289886,215.119537 
	C133.136612,215.193756 132.829056,215.081650 132.397781,214.746429 
	C132.607178,214.563278 132.894363,214.699921 133.289886,215.119537 
z"/>
<path fill="#D6BC94" opacity="1.000000" stroke="none" 
	d="
M137.138062,217.632172 
	C136.928207,217.738708 136.628265,217.572067 136.160782,217.209076 
	C136.344818,217.128143 136.696381,217.243561 137.138062,217.632172 
z"/>
<path fill="#D6BC94" opacity="1.000000" stroke="none" 
	d="
M141.308319,220.471085 
	C141.116272,220.512344 140.818680,220.289520 140.414764,219.802429 
	C140.606552,219.761124 140.904663,219.984055 141.308319,220.471085 
z"/>
<path fill="#D6BC94" opacity="1.000000" stroke="none" 
	d="
M142.576614,221.582916 
	C142.362503,221.644424 141.958084,221.389084 141.327072,220.849030 
	C141.529099,220.798233 141.957687,221.032135 142.576614,221.582916 
z"/>
</svg>